<?xml version="1.0" encoding="utf-8"?>
<!-- Generator: Adobe Illustrator 16.0.0, SVG Export Plug-In . SVG Version: 6.00 Build 0)  -->
<!DOCTYPE svg PUBLIC "-//W3C//DTD SVG 1.1//EN" "http://www.w3.org/Graphics/SVG/1.1/DTD/svg11.dtd">
<svg version="1.1" id="レイヤー_1" xmlns="http://www.w3.org/2000/svg" xmlns:xlink="http://www.w3.org/1999/xlink" x="0px"
	 y="0px" width="50px" height="50px" viewBox="0 0 50 50" enable-background="new 0 0 50 50" xml:space="preserve">
<path fill="none" stroke="#4C6162" stroke-linecap="round" stroke-linejoin="round" stroke-miterlimit="10" d="M9.899,16.037
	c-5.202,0.087-7.03-6.117-3.026-8.821c1.913-1.291,6.15-1.621,8.381-0.85c1.768,0.611,2.543,2.569,3.151,3.566
	c-0.383-3.544,4.54-6.493,8.271-6.496c4.363-0.003,5.547,5.306,5.579,8.461c-0.52-2.436,6.471-4.333,8.693-4.545
	c3.164-0.302,3.757,1.512,4.561,3.878c1.778,5.234-1.489,7.189-5.881,9.957c-4.134,2.604-1.129,10.279-2.39,14.474
	c-0.632,2.102-0.936,5.021-2.74,6.646c-2.491,2.243-6.657,3.225-10.163,3.356c-4.349,0.164-9.14,0.105-13.437-0.327
	c-4.64-0.469-4.959-2.605-3.967-6.145C8.833,32.414,8.72,25.026,10.69,18.25"/>
<path fill="none" stroke="#4C6162" stroke-linecap="round" stroke-linejoin="round" stroke-miterlimit="10" d="M15.636,36.811
	c3.566,1.049,8.471-0.125,12.256,0.47c2.722,0.428,5.493,1.273,8.319,1.062"/>
</svg>
