<?xml version="1.0" encoding="utf-8"?>
<!-- Generator: Adobe Illustrator 16.0.0, SVG Export Plug-In . SVG Version: 6.00 Build 0)  -->
<!DOCTYPE svg PUBLIC "-//W3C//DTD SVG 1.1//EN" "http://www.w3.org/Graphics/SVG/1.1/DTD/svg11.dtd">
<svg version="1.1" id="レイヤー_1" xmlns="http://www.w3.org/2000/svg" xmlns:xlink="http://www.w3.org/1999/xlink" x="0px"
	 y="0px" width="50px" height="50px" viewBox="0 0 50 50" enable-background="new 0 0 50 50" xml:space="preserve">
<path fill="none" stroke="#4C6162" stroke-linecap="round" stroke-linejoin="round" stroke-miterlimit="10" d="M37.333,6.667
	c-3.508,0.095-9.156-3.283-11.349-0.683c-0.954,1.13-1.731,5.746-2.04,7.324c-0.223-0.291-0.426-0.451-0.661-0.925
	c-1.897-0.065-11.758-1.463-8.957,2.883c0.244,0.378,3.698,1.503,4.42,1.994c1.74,1.182,3.201,3.027,4.861,4.131
	c0.506,6.705,0.069,14.321-0.883,20.888c1.293,0.886,1.619,3.688,2.333,5.339c9.094,0.76,4.108-19.667,6.333-25.567
	c1.938,0.023,3.761-0.845,5.549-1.44c-0.136-1.288-3.158-5.175-4.89-4.993c-0.098-0.503-0.107-1.06,0.007-1.559
	c2.852-1.569,9.122-0.929,7.227-5.343c-1.211-0.19-2.372-0.433-3.565-0.771C35.424,7.308,35.879,7.294,36,7"/>
</svg>
