<?xml version="1.0" encoding="UTF-8"?>
<svg width="50px" height="50px" viewBox="0 0 50 50" version="1.1" xmlns="http://www.w3.org/2000/svg" xmlns:xlink="http://www.w3.org/1999/xlink">
    <!-- Generator: Sketch 48.2 (47327) - http://www.bohemiancoding.com/sketch -->
    <title>Artboard</title>
    <desc>Created with Sketch.</desc>
    <defs></defs>
    <g id="Page-1" stroke="none" stroke-width="1" fill="none" fill-rule="evenodd">
        <g id="Artboard" stroke="#333333">
            <path d="M20.7752517,4.11714614 C17.9375344,3.65815002 14.5851992,2.78059536 11.5884908,3.12078766 C9.88418087,3.31426431 1.76644096,12.0710604 3.13939821,14.8712302 C3.76443369,16.1460008 4.45917904,17.380028 5.23373884,18.5386117 C7.41670905,21.8038904 8.03901891,21.6636952 11.9320866,21.2991834 C14.1806394,21.0886492 14.9647345,18.3453296 16.2358902,16.8258632 C20.0865973,12.2229495 19.4815393,15.4362994 19.8215076,12.014934" id="Path"></path>
            <path d="M14.1302489,12.3665678 C15.0079606,12.2412651 24.5482744,9.93964948 24.7565492,10.0343684 C25.3777783,10.31689 25.5418376,12.33717 25.4783357,12.8646996 C25.310529,14.2587193 24.9912041,15.6340848 24.7476383,17.0187774" id="Path-2"></path>
            <path d="M27.8489645,9.44925302 C29.8335265,11.0880983 29.6493229,18.7296601 29.9827432,18.8887651 C32.1964765,19.9451376 30.0046557,8.82678389 33.6760288,10.3254706 C35.7929793,11.1896283 33.313334,15.0296978 35.565742,15.5412065" id="Path-3"></path>
            <path d="M40.4959054,10.4722244 C40.5693478,11.9157538 40.4347249,13.3804177 40.7162324,14.8028126 C41.2639188,17.5701506 44.1282372,13.8863388 44.2414635,13.5801645 C44.9125169,11.7655736 44.3253171,9.56203614 45.4564351,7.94563733 C46.3816898,6.6234229 44.9222194,11.0508122 44.9160447,12.6161693 C44.9133507,13.2991381 45.1429982,13.9799612 45.4301409,14.6114916 C45.6653936,15.1288968 46.1156025,15.5426419 46.4583333,16.0082171" id="Path-4"></path>
            <path d="M10.2718601,23.8119403 C12.5937944,31.614487 13.6715109,39.5676341 16.2737982,47.296875" id="Path-5"></path>
            <path d="M12.8441193,26.3031346 C13.2761697,26.0630977 18.3350488,22.8023988 19.4411268,23.529177 C21.9835299,25.199731 21.1346801,37.0126824 14.7815304,37.010085" id="Path-6"></path>
            <path d="M41.99639,26.7357049 C41.99639,23.6806115 38.3192968,23.2360231 35.6860548,23.4809846 C31.4813132,23.8721372 27.7619426,27.6182141 27.8505149,31.583764 C27.9386964,35.5318209 27.7818584,42.3654071 30.7455631,45.7836764 C32.4914577,47.7973513 36.8471959,47.3099197 38.5837664,45.63544 C40.8486765,43.4515113 41.3785214,38.8358962 41.1379074,36.0916084" id="Path-7"></path>
            <path d="M38.1380012,38.7846559 C38.6768715,38.2634345 41.8678382,34.5922461 43.5901222,34.6826425 C45.5365222,34.7848019 44.5594585,42.7487965 44.3730454,43.8032484" id="Path-8"></path>
        </g>
    </g>
</svg>