<?xml version="1.0" encoding="UTF-8"?>
<svg width="50px" height="50px" viewBox="0 0 50 50" version="1.1" xmlns="http://www.w3.org/2000/svg" xmlns:xlink="http://www.w3.org/1999/xlink">
    <!-- Generator: Sketch 48.2 (47327) - http://www.bohemiancoding.com/sketch -->
    <title>Artboard</title>
    <desc>Created with Sketch.</desc>
    <defs></defs>
    <g id="Page-1" stroke="none" stroke-width="1" fill="none" fill-rule="evenodd">
        <g id="Artboard" stroke="#5F5F69">
            <g id="gnupg" transform="translate(3.000000, 3.000000)">
                <path d="M18.7752517,1.11714614 C15.9375344,0.65815002 12.5851992,-0.21940464 9.5884908,0.12078766 C7.88418087,0.31426431 -0.23355904,9.0710604 1.13939821,11.8712302 C1.76443369,13.1460008 2.45917904,14.380028 3.23373884,15.5386117 C5.41670905,18.8038904 6.03901891,18.6636952 9.9320866,18.2991834 C12.1806394,18.0886492 12.9647345,15.3453296 14.2358902,13.8258632 C18.0865973,9.2229495 17.4815393,12.4362994 17.8215076,9.014934" id="Path"></path>
                <path d="M12.1302489,9.3665678 C13.0079606,9.2412651 22.5482744,6.93964948 22.7565492,7.0343684 C23.3777783,7.31689 23.5418376,9.33717 23.4783357,9.8646996 C23.310529,11.2587193 22.9912041,12.6340848 22.7476383,14.0187774" id="Path-2"></path>
                <path d="M25.8489645,6.44925302 C27.8335265,8.0880983 26.9694556,14.6378394 27.1913988,14.3384022 C28.5234823,12.5412065 28.0046557,5.82678389 31.6760288,7.3254706 C33.7929793,8.1896283 31.313334,12.0296978 33.565742,12.5412065" id="Path-3"></path>
                <path d="M34.4959054,7.4722244 C34.5693478,8.9157538 34.4347249,10.3804177 34.7162324,11.8028126 C35.2639188,14.5701506 38.1282372,10.8863388 38.2414635,10.5801645 C38.9125169,8.7655736 38.3253171,6.56203614 39.4564351,4.94563733 C40.3816898,3.6234229 38.9222194,8.0508122 38.9160447,9.6161693 C38.9133507,10.2991381 39.1429982,10.9799612 39.4301409,11.6114916 C39.6653936,12.1288968 40.1156025,12.5426419 40.4583333,13.0082171" id="Path-4"></path>
                <path d="M8.2718601,20.8119403 C10.5937944,28.614487 11.6715109,36.5676341 14.2737982,44.296875" id="Path-5"></path>
                <path d="M10.8441193,23.3031346 C11.2761697,23.0630977 16.3350488,19.8023988 17.4411268,20.529177 C19.9835299,22.199731 19.1346801,34.0126824 12.7815304,34.010085" id="Path-6"></path>
                <path d="M39.99639,23.7357049 C39.99639,20.6806115 36.3192968,20.2360231 33.6860548,20.4809846 C29.4813132,20.8721372 25.7619426,24.6182141 25.8505149,28.583764 C25.9386964,32.5318209 25.7818584,39.3654071 28.7455631,42.7836764 C30.4914577,44.7973513 34.8471959,44.3099197 36.5837664,42.63544 C38.8486765,40.4515113 39.3785214,35.8358962 39.1379074,33.0916084" id="Path-7"></path>
                <path d="M36.1380012,35.7846559 C36.6768715,35.2634345 39.8678382,31.5922461 41.5901222,31.6826425 C43.5365222,31.7848019 42.5594585,39.7487965 42.3730454,40.8032484" id="Path-8"></path>
            </g>
        </g>
    </g>
</svg>