<?xml version="1.0" encoding="utf-8"?>
<!-- Generator: Adobe Illustrator 16.0.0, SVG Export Plug-In . SVG Version: 6.00 Build 0)  -->
<!DOCTYPE svg PUBLIC "-//W3C//DTD SVG 1.1//EN" "http://www.w3.org/Graphics/SVG/1.1/DTD/svg11.dtd">
<svg version="1.1" id="レイヤー_1" xmlns="http://www.w3.org/2000/svg" xmlns:xlink="http://www.w3.org/1999/xlink" x="0px"
	 y="0px" width="50px" height="50px" viewBox="0 0 50 50" enable-background="new 0 0 50 50" xml:space="preserve">
<path fill="none" stroke="#4C6162" stroke-linecap="round" stroke-linejoin="round" stroke-miterlimit="10" d="M5.593,39.211
	c0-5.899,0.093-11.803,0.087-17.698c-0.002-2.979-0.164-6.02,0.013-8.987c1.793,1.724,3.844,3.151,5.61,4.925
	c1.641,1.647,3.157,3.23,5.064,4.565c2.627,1.838,4.962,4.058,7.686,5.753c1.129,0.703,2.66,2.131,3.991,2.326
	c-0.017-0.599,0.705-1.107,1.084-1.501c1.238-1.283,2.519-2.535,3.784-3.799c1.792-1.789,3.593-3.597,5.31-5.456
	c2.269-2.458,3.901-5.477,6.646-7.506c0.259,5.208-0.825,10.582-1.537,15.718c-0.355,2.565-0.513,5.188-0.791,7.768
	c-0.191,1.763-0.644,3.683-0.521,5.453"/>
</svg>
