<?xml version="1.0" encoding="utf-8"?>
<!-- Generator: Adobe Illustrator 16.0.0, SVG Export Plug-In . SVG Version: 6.00 Build 0)  -->
<!DOCTYPE svg PUBLIC "-//W3C//DTD SVG 1.1//EN" "http://www.w3.org/Graphics/SVG/1.1/DTD/svg11.dtd">
<svg version="1.1" id="レイヤー_1" xmlns="http://www.w3.org/2000/svg" xmlns:xlink="http://www.w3.org/1999/xlink" x="0px"
	 y="0px" width="50px" height="50px" viewBox="0 0 50 50" enable-background="new 0 0 50 50" xml:space="preserve">
<path fill="none" stroke="#4C6162" stroke-linecap="round" stroke-linejoin="round" stroke-miterlimit="10" d="M30.244,37.04
	c0.932,2.403-0.595,5.836,1.256,8.132c0.725,0.899,2.887,1.852,3.912,2.241c0.185-1.058-0.517-1.257-0.909-2.101
	c-0.835-1.793-0.916-4.356-1.014-6.325c-0.091-1.799-0.236-3.837,0.69-5.189c1.004-1.464,2.119-1.84,2.555-3.452
	c1.346-4.981,2.633-8.764,0.014-13.31c-0.771-1.341-1.983-2.363-2.621-3.805c-0.562-1.267-0.265-2.73-0.333-4.101
	c-1.794-0.332-2.114,1.183-3.55,1.599c-1.274,0.37-3.188,0-4.539,0c-2.155,0-2.247-0.071-3.617-1.625
	c-1.115-1.263-1.896-1.394-3.094-0.203c-1.813,1.803,0.69,4.576-0.155,7.151c-0.56,1.706-1.939,3.136-2.687,4.745
	c-0.611,1.317-0.742,2.793-0.885,4.222c-0.164,1.635-0.144,3.36-0.127,5.041c0.02,1.802,0.798,3.621,0.65,5.362
	c-0.322,3.779-5.656,0.463-7.438-0.803c-0.462,1.591,4.089,3.586,5.362,4.007c1.34,0.442,2.139,0.406,2.684,1.946
	c0.495,1.395,0.083,2.679-0.425,3.907c0.26,0.021,0.501,0.045,0.763,0c0.562-0.969,1.998-1.586,2.798-2.399
	c0.9-0.915,1.688-2.212,2.102-3.279c0.406,0.714-0.045,1.378-0.198,2.132c-0.277,1.37-0.343,2.782-0.265,4.2
	c1.761,0.907,3.042-5.165,4.652-6.129c0.06,0.893,0.009,1.823,0.062,2.716c0.986,0.776,1.315,2.529,2.538,3.377
	c1.093-2.659,0.004-5.12,1.981-7.572"/>
<path fill="none" stroke="#4C6162" stroke-linecap="round" stroke-linejoin="round" stroke-miterlimit="10" d="M8.618,44.866
	c0.042-1.297-2.197-3.704-2.875-5.009C5,38.426,4.34,37.008,3.785,35.506c-0.825-2.229-1.488-4.293-1.617-6.672
	c-0.322-5.983,1.576-14.048,5.961-18.441c4.367-4.374,10.867-6.551,16.838-7.35C30.815,2.26,37.48,2.464,41.387,7.426
	c2.539,3.225,3.894,6.325,4.88,10.331c1.21,4.916,1.975,11.294,1.19,16.312c-0.819,5.244-4.51,8.921-6.419,13.413"/>
</svg>
