<?xml version="1.0" encoding="utf-8"?>
<!-- Generator: Adobe Illustrator 16.0.0, SVG Export Plug-In . SVG Version: 6.00 Build 0)  -->
<!DOCTYPE svg PUBLIC "-//W3C//DTD SVG 1.1//EN" "http://www.w3.org/Graphics/SVG/1.1/DTD/svg11.dtd">
<svg version="1.1" id="レイヤー_1" xmlns="http://www.w3.org/2000/svg" xmlns:xlink="http://www.w3.org/1999/xlink" x="0px"
	 y="0px" width="50px" height="50px" viewBox="0 0 50 50" enable-background="new 0 0 50 50" xml:space="preserve">
<path fill="none" stroke="#4C6162" stroke-linecap="round" stroke-linejoin="round" stroke-miterlimit="10" d="M24.353,11.094
	c-3.995,0-8.023-0.159-12.016,0c-1.18,0.047-2.342,0.379-3.504,0.597c-1.269,0.238-2.526,0.323-3.788,0.538
	c-1.595,0.272-1.704,0.733-2.205,2.35c-0.778,2.513-0.394,5.562-0.282,8.146c0.112,2.576,0.587,5.044,1.005,7.583
	c0.236,1.44,0.462,2.98,1.096,4.311c1.643,3.453,4.438,3.96,7.999,4.372c3.102,0.358,6.251,0.044,9.365,0.156
	c3.227,0.117,6.448,0.474,9.671,0.581c2.846,0.095,6.422,0.709,9.14-0.413c1.9-0.786,2.772-3.592,3.466-5.361
	c1.945-4.972,1.921-10.384,1.203-15.589c-0.209-1.517,0.239-3.07-0.485-4.418c-0.695-1.296-0.563-2.095-2.085-2.404
	c-1.562-0.316-3.335-0.09-4.928-0.09c-2.766,0-5.612,0.16-8.355-0.198c-0.938-0.122-4.943-1.061-5.224-0.018"/>
<path fill="none" stroke="#4C6162" stroke-linecap="round" stroke-linejoin="round" stroke-miterlimit="10" d="M23.417,17.856
	c-3.145,0.762-5.856,3.356-8.704,4.966c2.133,0.566,4.21,2.653,5.972,4.024c1.1,0.856,2.108,2.058,3.365,2.656
	c0.209-2.712-0.596-5.404-0.703-8.102c-0.042-1.051-0.073-2.424-0.073-3.329"/>
<path fill="none" stroke="#4C6162" stroke-linecap="round" stroke-linejoin="round" stroke-miterlimit="10" d="M26.654,18.36
	c0,3.963-0.08,7.922-0.07,11.882c0.217-0.214,1.577-0.242,2.045-0.302c0.838-0.106,1.733-0.125,2.548-0.376
	c1.238-0.38,2.447-1.228,3.526-1.927c1.263-0.818,2.609-1.742,3.52-2.968c0.434-0.583,0.65-0.77,0.136-1.267
	c-0.608-0.587-1.791-1.05-2.553-1.453c-0.623-0.329-1.213-0.687-1.826-1.03c-0.994-0.555-1.941-1.18-2.988-1.659
	c-0.544-0.249-3.943-1.39-4.121-0.901"/>
</svg>
