<?xml version="1.0" encoding="utf-8"?>
<!-- Generator: Adobe Illustrator 16.0.0, SVG Export Plug-In . SVG Version: 6.00 Build 0)  -->
<!DOCTYPE svg PUBLIC "-//W3C//DTD SVG 1.1//EN" "http://www.w3.org/Graphics/SVG/1.1/DTD/svg11.dtd">
<svg version="1.1" id="レイヤー_1" xmlns="http://www.w3.org/2000/svg" xmlns:xlink="http://www.w3.org/1999/xlink" x="0px"
	 y="0px" width="50px" height="50px" viewBox="0 0 50 50" enable-background="new 0 0 50 50" xml:space="preserve">
<path fill="none" stroke="#4C6162" stroke-linecap="round" stroke-linejoin="round" stroke-miterlimit="10" d="M20.829,84.733
	c-4.759,2.029-14.684-2.684-18.966-5.789c2.477,4.945,8.348,6.825,10.962,11.688c-1.792-0.099-3.706,0.309-5.288,1.082
	c1.984,0.129,3.6,1.037,4.899,2.491c-1.932,1.069-4.657,2.163-6.891,2.985c3.799-0.721,7.56,2.812,10.887,4.346
	c4.573,2.107,8.379,2.972,13.357,3.111c10.643,0.297,12.006-9.84,12.522-18.845c0.846,0.073,2.066-0.341,2.874-0.188
	c-0.982-0.544-1.418-1.639-2.266-2.416c1.541-0.318,3.229-1.261,4.258-2.337c-0.893,0.279-1.979,0.083-2.947,0.435
	c-1.43-1.256-2.494-4.542-3.961-5.452c-1.793-1.111-8.184-1.534-10.381-1.082c-5.022,1.038-6.337,6.143-8.065,9.969"/>
<path fill="none" stroke="#4C6162" stroke-linecap="round" stroke-linejoin="round" stroke-miterlimit="10" d="M114.333,85
	c-6.427,2.463-13.935-2.328-19.591-4.992c2.365,2.429,5.311,4.943,7.232,7.575c-6.134,2.469,0.602,3.172,2.724,5.749
	c-8.721,7.527,12.96,13.354,17.96,14.325c2.9,0.563,4.523,1.373,6.583-0.635c1.741-1.697,2.206-4.486,2.425-6.657
	c0.457-4.54-2.271-10.819,3.567-11.682c-0.582-0.176-0.932-0.583-1.511-0.742c-0.178-0.32-0.542-1.6-0.588-1.96
	c0.866-0.467,1.715-1.521,2.423-2.339c-0.788,0.22-1.735-0.132-2.507-0.028c0.004-2.912-1.198-5.674-1.095-8.564
	c-2.599-0.136-7.253-0.943-9.66,0.025c-1.812,0.729-2.805,2.71-3.978,4.524c-1.23,1.903-3.471,4.512-3.985,6.734"/>
<path fill="none" stroke="#4C6162" stroke-linecap="round" stroke-linejoin="round" stroke-miterlimit="10" d="M114.667,24
	c-8.278,0-13.884-1.051-20.532-6.032c2.674,3.809,4.438,8.133,7.507,11.624c-1.771,0.571-5.016,0.605-5.248,2.685
	c1.924,0.734,4.155,1.869,6.222,2.104c-0.291,1.211-0.77,1.476-2.255,1.344c6.803,5.614,16.603,13.173,25.641,7.292
	c2.916-1.897,2.351-2.191,3.001-4.992c0.604-2.599,1.805-4.938,2.666-7.427c1.495-4.318,1.112-6.735-0.282-10.215
	c0.406-0.057,0.823-0.068,1.23-0.1c0.29-0.555,0.651-1.373,0.927-1.974c-1.007,0.335-1.963,0.414-3.108,0.381
	c0.928-0.663,1.863-1.339,2.781-2.04c-1.491-0.015-2.789,0.33-3.814,1.242c0.238-4.25-9.396-5.404-12-3.558
	c-2.434,1.724-5.604,8.163-2.4,9.999"/>
<path fill="none" stroke="#4C6162" stroke-linecap="round" stroke-linejoin="round" stroke-miterlimit="10" d="M23.333,18.333
	c-6.104,1.988-14.331-1.15-20.217-2.616c2.427,3.873,7.664,6.108,9.758,9.975c-2.252-0.202-4.618,0.999-6.621,1.642
	c2.698,0.191,6.234,1.587,8.628,3.016c-2.913-0.328-6.662,1.13-8.855,2.576c3.211-0.326,6.353,3.869,8.624,5.659
	c3.373,2.659,6.585,3.365,10.993,3.75c13.854,1.208,13.844-11.886,16.072-22.283c1.152-0.064,2.348-0.077,3.517-0.05
	c-1.684,0.135-3.646-0.218-3.848-1.944c1.63-0.695,3.227-1.827,4.848-2.656c-1.717-0.109-3.729-0.399-5.165,0.583
	c0.388-6.19-9.886-13.385-14.659-9.65c-2.296,1.797-6.757,8.75-3.133,11.057c0.079,0.402-0.054,0.89,0.058,1.276"/>
</svg>
